<?xml version="1.0" encoding="UTF-8" standalone="no"?>
<svg width="16px" height="16px" viewBox="0 0 16 16" version="1.1" xmlns="http://www.w3.org/2000/svg" xmlns:xlink="http://www.w3.org/1999/xlink">
    <!-- Generator: Sketch 45.2 (43514) - http://www.bohemiancoding.com/sketch -->
    <title>icons8-Invite</title>
    <desc>Created with Sketch.</desc>
    <defs></defs>
    <g id="Main" stroke="none" stroke-width="1" fill="none" fill-rule="evenodd">
        <g id="Dashboard-Superuser" transform="translate(-17.000000, -127.000000)" fill-rule="nonzero" fill="#FFFFFF">
            <g id="icons8-Invite" transform="translate(17.000000, 127.000000)">
                <path d="M8,0 C7.66875008,0 7.05750016,0.07875008 6.53,0.52 C6.525,0.525 6.51250016,0.52875008 6.51,0.53 C6.33124992,0.66624992 5.89250016,1.05250016 5.26,1.6 L2.88,1.6 C2.87,1.6 2.86,1.6 2.85,1.6 C2.685,1.615 2.55875008,1.75375008 2.56,1.92 L2.56,3.99 C1.26124992,5.13875008 0.11,6.16 0.11,6.16 C0.04,6.22 0,6.30750016 0,6.4 L0,15.68 C0,15.8562499 0.14375008,16 0.32,16 L15.68,16 C15.8562499,16 16,15.8562499 16,15.68 L16,6.4 C16,6.30750016 15.96,6.22 15.89,6.16 C15.89,6.16 14.7387501,5.13875008 13.44,3.99 L13.44,1.92 C13.44,1.74375008 13.2962499,1.6 13.12,1.6 L10.72,1.6 C10.1125002,1.05124992 9.66875008,0.66624992 9.49,0.53 C9.48750016,0.52875008 9.475,0.525 9.47,0.52 C8.94250016,0.07875008 8.33124992,0 8,0 Z M8,0.64 C8.24,0.64 8.70624992,0.69750016 9.07,1.01 C9.07624992,1.01375008 9.08375008,1.01750016 9.09,1.02 C9.12750016,1.04750016 9.51250016,1.39 9.75,1.6 L6.24,1.6 C6.47875008,1.39250016 6.87250016,1.04750016 6.91,1.02 C6.91624992,1.01750016 6.92375008,1.01375008 6.93,1.01 C7.29375008,0.69750016 7.76,0.64 8,0.64 Z M3.2,2.24 L5.26,2.24 C5.32124992,2.25875008 5.38875008,2.25875008 5.45,2.24 L12.8,2.24 L12.8,4 C12.7762499,4.06750016 12.7762499,4.14250016 12.8,4.21 L12.8,8.58 L10.78,10.17 C10.3375002,9.82250016 9.59750016,9.24875008 9.5,9.17 L9.48,9.16 C8.92624992,8.71750016 8.335,8.64 8,8.64 C7.64124992,8.64 7.075,8.75 6.53,9.15 L6.52,9.16 C6.41,9.24124992 5.63250016,9.84875008 5.22,10.17 L3.2,8.58 L3.2,4.18 C3.20875008,4.13750016 3.20875008,4.09250016 3.2,4.05 L3.2,2.24 Z M2.56,4.84 L2.56,8.08 L0.64,6.57 L0.64,6.54 C0.71624992,6.47250016 1.64750016,5.64750016 2.56,4.84 Z M13.44,4.84 C14.3525002,5.64750016 15.2837501,6.47250016 15.36,6.54 L15.36,6.57 L13.44,8.08 L13.44,4.84 Z M0.64,7.39 L4.7,10.58 C4.115,11.0375002 3.86,11.23 3.16,11.78 C1.87875008,12.7875002 1.01250016,13.4662499 0.64,13.76 L0.64,7.39 Z M15.36,7.39 L15.36,13.77 C14.885,13.3975002 12.9837501,11.9012499 11.3,10.58 L15.36,7.39 Z M8,9.28 C8.24,9.28 8.67375008,9.335 9.08,9.66 C9.575,10.0562499 15.1987501,14.4537501 15.36,14.58 L15.36,15.36 L0.64,15.36 L0.64,14.58 C0.72375008,14.5137501 2.06375008,13.4575002 3.55,12.29 C5.08124992,11.0862499 6.70750016,9.81875008 6.91,9.67 C7.325,9.36624992 7.78250016,9.28 8,9.28 Z" id="Shape"></path>
            </g>
        </g>
    </g>
</svg>