<?xml version="1.0" encoding="UTF-8" standalone="no"?>
<svg width="21px" height="14px" viewBox="0 0 21 14" version="1.1" xmlns="http://www.w3.org/2000/svg" xmlns:xlink="http://www.w3.org/1999/xlink">
    <!-- Generator: Sketch 39.1 (31720) - http://www.bohemiancoding.com/sketch -->
    <title>Expensive 2 Copy</title>
    <desc>Created with Sketch.</desc>
    <defs></defs>
    <g id="Main" stroke="none" stroke-width="1" fill="none" fill-rule="evenodd">
        <g id="Dashboard" transform="translate(-784.000000, -195.000000)" fill="#9CA9B2">
            <g id="Group-2" transform="translate(425.000000, 116.000000)">
                <g id="Group-6" transform="translate(15.000000, 78.000000)">
                    <g id="Group" transform="translate(344.000000, 1.000000)">
                        <g id="Expensive-2-Copy">
                            <path d="M7,0.147611789 C3.18888889,0.147611789 0.145833333,3.22777778 0.145833333,7.08536585 C0.145833333,10.9429539 3.18888889,14.0231199 7,14.0231199 C10.8111111,14.0231199 13.8541667,10.9429539 13.8541667,7.08536585 C13.8541667,3.22777778 10.8111111,0.147611789 7,0.147611789 Z M10.9618056,0.246019648 C13.2951389,1.66309282 14.8506944,4.17249322 14.8506944,7.08536585 C14.8506944,9.99823848 13.2951389,12.5863652 10.9618056,13.9247121 C14.3840278,13.5310806 16.9652778,10.6280488 16.9652778,7.08536585 C16.9652778,3.54268293 14.30625,0.639651084 10.9618056,0.246019648 Z M14.0729167,0.246019648 C16.40625,1.66309282 17.9618056,4.17249322 17.9618056,7.08536585 C17.9618056,9.99823848 16.40625,12.5863652 14.0729167,13.9247121 C17.4951389,13.5310806 20.0763889,10.6280488 20.0763889,7.08536585 C20.0763889,3.54268293 17.4173611,0.639651084 14.0729167,0.246019648 Z M6.46527778,3.0014397 L7.46180556,3.0014397 L7.46180556,3.86250847 C8.16180556,3.86250847 8.55555556,4.02488144 8.94444444,4.18233401 L8.62847222,5.36322832 C8.39513889,5.20577575 7.92361111,4.96959688 7.14583333,4.96959688 C6.52361111,4.96959688 6.29513889,5.27466125 6.29513889,5.51084011 C6.29513889,5.82574526 6.68402778,6.05700373 7.46180556,6.37190888 C8.62847222,6.76554031 9.09027778,7.32154472 9.09027778,8.26626016 C9.24583333,9.21097561 8.62847222,10.0031589 7.46180556,10.1606114 L7.46180556,11.169292 L6.46527778,11.169292 L6.46527778,10.2344173 C5.76527778,10.2344173 5.12847222,9.99823848 4.73958333,9.84078591 L5.05555556,8.6598916 C5.44444444,8.89607046 6.06180556,9.12732893 6.68402778,9.12732893 C7.22847222,9.12732893 7.63194444,8.90591125 7.63194444,8.51227981 C7.63194444,8.11864837 7.31597222,7.86278794 6.53819444,7.62660908 C5.44930556,7.23297764 4.73958333,6.78030149 4.73958333,5.75685976 C4.73958333,4.8908706 5.37638889,4.17249322 6.46527778,3.93631436 L6.46527778,3.0014397 Z" id="Shape"></path>
                        </g>
                    </g>
                </g>
            </g>
        </g>
    </g>
</svg>