<svg width="50px" height="50px" viewBox="0 0 50 50" version="1.1" xmlns="http://www.w3.org/2000/svg" xmlns:xlink="http://www.w3.org/1999/xlink">
    <defs>
        <linearGradient x1="0%" y1="0.577884856%" x2="102%" y2="100.411353%" id="linearGradient-1">
            <stop stop-color="#14CBF6" offset="0%">
            <animate attributeName="stop-color" values="#14CBF6; #00EAF8; #5764F1; #00EAF8; #14CBF6" dur="4s" repeatCount="indefinite"></animate></stop>
            <stop stop-color="#5764F1" offset="100%">
            <animate attributeName="stop-color" values="#5764F1; #14CBF6; #00EAF8; #14CBF6; #5764F1;" dur="4s" repeatCount="indefinite"></animate></stop>
        </linearGradient>
        <mask id="mask-3" fill="white">
            <circle id="path-2" cx="25" cy="25" r="25"></circle>
        </mask>
    </defs>
    <g stroke="none" stroke-width="1" fill="none" fill-rule="evenodd">
                <use id="a" fill="url(#linearGradient-1)" xlink:href="#path-2"></use>
                <path d="M25,10 C29.466667,10 33,13.5333333 33,18 L33,24 C33,26.755914 31.56015,29.24115 29.4375,30.65625 L29,31.5 L29,33.5 C29,34.274074 29.399054,34.958769 29.90625,35.4375 C30.413446,35.916231 31.051226,36.277277 31.75,36.625 C33.147547,37.320446 34.868419,37.939261 36.5625,38.75 C38.256581,39.560739 39.887668,40.543043 41.0625,41.84375 C41.3294015,42.139248 41.5659608,42.7573005 41.7729974,43.5339365 C39.8275553,45.3793945 38.6925456,46.1778158 35.2151693,47.8500977 C31.737793,49.5223796 27.5620719,50.0276693 25.1962891,50.0276693 C20.9079511,50.0276693 17.2792155,49.0948079 14.1845703,47.601888 C11.0899251,46.1089681 9.83203125,45.0045573 8.22917785,43.5574679 C8.43566891,42.785174 8.67148945,42.1701451 8.9375,41.875 C10.11409,40.569545 11.742952,39.573066 13.4375,38.75 C15.132048,37.926934 16.855724,37.290888 18.25,36.59375 C18.947138,36.245181 19.588095,35.877851 20.09375,35.40625 C20.599405,34.934649 21,34.270833 21,33.5 L21,31.5 L20.5625,30.65625 C18.43985,29.24115 17,26.755914 17,24 L17,18 C17,13.5333333 20.533333,10 25,10 Z" id="Shape" fill="#E9E9E9" fill-rule="nonzero" mask="url(#mask-3)"></path>

    </g>
</svg>