<?xml version="1.0" encoding="UTF-8" standalone="no"?>
<svg width="12px" height="11px" viewBox="0 0 12 11" version="1.1" xmlns="http://www.w3.org/2000/svg" xmlns:xlink="http://www.w3.org/1999/xlink">
    <!-- Generator: Sketch 45.2 (43514) - http://www.bohemiancoding.com/sketch -->
    <title>Combined Shape</title>
    <desc>Created with Sketch.</desc>
    <defs></defs>
    <g id="Main" stroke="none" stroke-width="1" fill="none" fill-rule="evenodd">
        <g id="Dashboard-Superuser" transform="translate(-1092.000000, -273.000000)" fill="#268ED6">
            <g id="Group-Copy-2" transform="translate(217.000000, 272.000000)">
                <g id="Combined-Shape" transform="translate(875.000000, 1.000000)">
                    <path d="M7.04666409,5.53283711 L11.0492844,1.4971001 C11.3363851,1.2076285 11.3363851,0.738323355 11.0492844,0.44896887 C10.7622999,0.159614385 10.2968851,0.159614385 10.0097844,0.44896887 L6.0164625,4.4754089 L2.02300122,0.44885176 C1.73603993,0.159497275 1.27057865,0.159497275 0.983594137,0.44885176 C0.696354092,0.738182823 0.696354092,1.20751139 0.983594137,1.49698299 L4.98488222,5.53143905 L0.98220724,9.56543787 C0.694967196,9.85477637 0.694967196,10.3238891 0.98220724,10.6130872 C1.26919175,10.9023086 1.73465304,10.9023086 2.02161432,10.6130872 L6.0150756,6.5883814 L10.0083975,10.6129701 C10.2954982,10.9021916 10.760913,10.9021916 11.0478975,10.6129701 C11.3349982,10.3237487 11.3349982,9.85465931 11.0478975,9.56532081 L7.04666409,5.53283711 Z"></path>
                </g>
            </g>
        </g>
    </g>
</svg>