<svg xmlns="http://www.w3.org/2000/svg" width="12" height="12" viewBox="0 0 12 12">
  <path fill="#FFFFFF" d="M6,0.0865384615 C2.73497585,0.0865384615 0.0865384615,2.73497585 0.0865384615,6 C0.0865384615,9.26502415 2.73497585,11.9134615 6,11.9134615 C9.26502415,11.9134615 11.9134615,9.26502415 11.9134615,6 C11.9134615,2.73497585 9.26502415,0.0865384615 6,0.0865384615 Z M8.66826923,8.02824508 L8.02644231,8.66826923 C7.90925492,8.78545662 7.71814892,8.78545662 7.60096154,8.66826923 L6,7.06730769 L4.39903846,8.66826923 C4.28185108,8.78545662 4.09074508,8.78545662 3.97355769,8.66646646 L3.33173077,8.02824508 C3.21634615,7.90925492 3.21634615,7.71995215 3.33173077,7.60096154 L4.93269231,6 L3.33353354,4.40084123 C3.21634615,4.28185108 3.21634615,4.09074508 3.33353354,3.97355769 L3.97355769,3.33353354 C4.09074508,3.21454338 4.28365385,3.21454338 4.40084123,3.33353354 L6,4.93269231 L7.60096154,3.33353354 C7.71814892,3.21454338 7.91105769,3.21454338 8.02644231,3.33353354 L8.66826923,3.97175492 C8.78545662,4.09074508 8.78545662,4.28185108 8.66826923,4.40084123 L7.06730769,6 L8.66826923,7.60096154 C8.78365385,7.71995215 8.78365385,7.90925492 8.66826923,8.02824508 Z"/>
</svg>
