<svg xmlns="http://www.w3.org/2000/svg" width="17" height="18" viewBox="0 0 17 18"><path fill="#fff" d="M3.02 13.27a1.5 1.5 0 1 1 1.71 1.71L5 15a2 2 0 1 0-1.98-1.73zM4.5 15c.08 0 .16 0 .23-.02a2 2 0 0 1-1.71-1.71L3 13.5c0 .83.67 1.5 1.5 1.5zM2 10a1 1 0 0 0-1 1s-1.41 3.57 0 5c0 .45.45 1 1 1 .45.15 14 0 14 0a1 1 0 0 0 1-1v-5c0-.55-.55-1-1-1-2.5-.4-14 0-14 0zm.02.64h13.89c.26 0 .45.19.45.44v4.9a.4.4 0 0 1-.38.38H2.02a.4.4 0 0 1-.38-.38v-4.9c0-.25.19-.44.38-.44zm5.48 2.11h5V12h-5zm0 1.25h8v.75h-8zM2 1a1 1 0 0 0-1 1S-.41 5.57 1 7c0 .45.45 1 1 1 .45.15 14 0 14 0a1 1 0 0 0 1-1V2c0-.55-.55-1-1-1C13.5.6 2 1 2 1zm.02.64h13.89c.26 0 .45.19.45.44v4.9a.4.4 0 0 1-.38.38H2.02a.4.4 0 0 1-.38-.38v-4.9c0-.25.19-.44.38-.44zM5 6a2 2 0 1 0-1.98-1.73 1.5 1.5 0 1 1 1.71 1.71L5 6zm-.5 0c.08 0 .16 0 .23-.02a2 2 0 0 1-1.71-1.71L3 4.5C3 5.33 3.67 6 4.5 6zm3-2.25h5V3h-5zM7.5 5h8v.75h-8z"/></svg>