<svg xmlns="http://www.w3.org/2000/svg" xmlns:xlink="http://www.w3.org/1999/xlink" width="26" height="25" viewBox="0 0 26 25"><defs><path id="a" d="M1137 2351.42a2.42 2.42 0 1 1 4.85 0 2.42 2.42 0 0 1-4.85 0z"/><path id="b" d="M1142.33 2349.34h1.73c.15 0 .31-.15.31-.31v-1.72c0-.15-.16-.31-.31-.31h-1.73c-.15 0-.31.16-.31.31v1.72c-.08.16.08.31.31.31z"/><path id="c" d="M1139.53 2339c6.88 0 12.52 5.63 12.52 12.5 0 6.88-5.64 12.5-12.52 12.5a12.55 12.55 0 0 1-12.53-12.5c0-6.87 5.64-12.5 12.53-12.5zm6.26 17.27v-9.54a1.5 1.5 0 0 0-1.49-1.48h-9.55a1.5 1.5 0 0 0-1.49 1.48v9.54c0 .86.71 1.48 1.49 1.48h9.55c.78 0 1.49-.7 1.49-1.48z"/><path id="d" d="M1142.69 2351.02a3.83 3.83 0 1 1-7.52-1.02H1134v5.47c0 .16.16.31.31.31h9.01c.15 0 .31-.15.31-.31V2350h-1.18c.16.31.24.7.24 1.02z"/></defs><desc>Generated with Avocode.</desc><g transform="translate(-1126 -2339)"><use fill="#009cdc" xlink:href="#a"/></g><g transform="translate(-1126 -2339)"><use fill="#009cdc" xlink:href="#b"/></g><g transform="translate(-1126 -2339)"><use fill="#009cdc" xlink:href="#c"/></g><g transform="translate(-1126 -2339)"><use fill="#009cdc" xlink:href="#d"/></g></svg>