<svg xmlns="http://www.w3.org/2000/svg" xmlns:xlink="http://www.w3.org/1999/xlink" width="26" height="25" viewBox="0 0 26 25"><defs><path id="a" d="M1082.53 2339c6.88 0 12.52 5.63 12.52 12.5 0 6.88-5.64 12.5-12.52 12.5a12.55 12.55 0 0 1-12.53-12.5c0-6.87 5.64-12.5 12.53-12.5zm-3.45 18.75v-8.36h-2.58v8.36zm-1.33-9.45c.86 0 1.49-.71 1.49-1.57 0-.78-.63-1.48-1.49-1.48-.78 0-1.49.7-1.49 1.48 0 .86.71 1.57 1.49 1.57zm11.04 9.45v-4.53c0-2.27-.47-3.99-3.13-3.99a2.7 2.7 0 0 0-2.43 1.33v-1.17h-2.51v8.36h2.59v-4.14c0-1.09.23-2.11 1.56-2.11s1.33 1.25 1.33 2.19v4.06z"/></defs><desc>Generated with Avocode.</desc><g transform="translate(-1069 -2339)"><use fill="#009cdc" xlink:href="#a"/></g></svg>