<svg xmlns="http://www.w3.org/2000/svg" xmlns:xlink="http://www.w3.org/1999/xlink" width="459" height="333" viewBox="0 0 459 333"><defs><path id="a" d="M144 1099.63a21.62 21.62 0 0 1 21.63-21.63h306.72a21.62 21.62 0 1 1 0 43.25H165.62a21.62 21.62 0 0 1-21.62-21.63z"/><path id="b" d="M528.28 1035a21.62 21.62 0 1 1 0 43.25H172.1a21.62 21.62 0 1 0 0-43.25z"/><path id="c" d="M133.63 992h326.94c.5 0 1.02.02 1.53.05a21.63 21.63 0 0 0 0 43.15c-.51.03-1.02.05-1.53.05H133.63a21.62 21.62 0 1 1 0-43.25z"/><path id="d" d="M193.63 948h322.25a21.62 21.62 0 1 1 0 43.25H193.63c-.98 0-1.94-.06-2.88-.19a21.63 21.63 0 0 0 0-42.87c.94-.13 1.9-.19 2.88-.19z"/><path id="e" d="M165.63 905h313a21.62 21.62 0 1 0 0 43.25h-313a21.62 21.62 0 1 1 0-43.25z"/><path id="f" d="M212.63 862h301.56a21.62 21.62 0 1 1 0 43.25H212.13a21.63 21.63 0 0 0 .5-43.25z"/><path id="g" d="M169 840.63A21.62 21.62 0 0 1 190.63 819h358.54a21.62 21.62 0 1 1 0 43.25H190.61A21.62 21.62 0 0 1 169 840.62z"/><path id="h" d="M483 828.62a5.63 5.63 0 1 1 11.25.01 5.63 5.63 0 0 1-11.25-.01z"/><path id="i" d="M467 855.38a3.38 3.38 0 1 1 6.76 0 3.38 3.38 0 0 1-6.76 0z"/><path id="j" d="M495 875.25a5.25 5.25 0 1 1 10.5 0 5.25 5.25 0 0 1-10.5 0z"/><path id="k" d="M187 861.25a5.25 5.25 0 1 1 10.5 0 5.25 5.25 0 0 1-10.5 0z"/><path id="l" d="M175 896.38a3.38 3.38 0 1 1 6.76 0 3.38 3.38 0 0 1-6.76 0z"/><path id="m" d="M248 823.17h14.82"/><path id="n" d="M247 823.17h14.82"/><path id="o" d="M428 1114.06h16.47"/><path id="p" d="M427 1114.06h16.47"/><path id="q" d="M385 1140.62a5.63 5.63 0 1 1 11.25.01 5.63 5.63 0 0 1-11.25-.01z"/><path id="r" d="M360 1100.38a3.38 3.38 0 1 1 6.76 0 3.38 3.38 0 0 1-6.76 0z"/><path id="s" d="M514 1000.38h10.82"/><path id="t" d="M289 963.37c0-42.18 34.24-76.37 76.47-76.37s76.47 34.2 76.47 76.37c0 42.18-34.24 76.37-76.47 76.37S289 1005.54 289 963.37z"/><path id="u" d="M377.18 1026.84s14.45-10.97 12.21-17.01c-2.24-6.04-33.88-17.06-28.85-30.74 5.03-13.68 25.22-6.77 32.66-12.2 7.44-5.44 10.67-16.01 18-19.47 7.34-3.47 8.13 8.43 16.98 2.95 8.84-5.48 6.16-29.68 13.41-21.78 8.52 0 28.69-14.14 19.49 23.63-9.19 37.77-43.41 74.62-43.41 74.62z"/><path id="v" d="M370.79 969.91c-6.54.68-12.76 2.4-15.25 9.18-3.19 8.69 8.4 16.3 17.86 22.24zm7.35 34.43c3.25 2.12 5.68 3.96 6.25 5.49 2.24 6.04-12.21 17.01-12.21 17.01h40.49s34.22-36.85 43.41-74.62c9.2-37.77-10.97-23.63-19.49-23.63-7.25-7.9-4.57 16.3-13.41 21.78-8.85 5.48-9.64-6.42-16.98-2.95-7.33 3.46-10.56 14.03-18 19.47-2.14 1.56-5.35 2.1-8.95 2.41z"/><path id="w" d="M311.26 914.93c11.48 5.26 6.85-20.77 18.53-14.12a30.55 30.55 0 0 1 6.58 5.04 35.86 35.86 0 0 1 3.08 3.57c3.89 5.11 6.14 10.33 10.7 13.35 1.87 1.24 4.96 1.98 8.38 2.17 2.5.13 5.19-.03 7.72-.52 7.47-1.44 13.55-5.69 9.5-13.34-7.31-13.78 4.19-15.63 7.96-23.01 3.78-7.39 6.99-15.62 3.1-26.65-3.89-11.02-18.37-6.5-18.37-6.5L271 897.3s28.77 12.38 40.26 17.63z"/><path id="x" d="M338.45 912.42c3.89 5.11 6.14 10.33 10.7 13.35 1.87 1.24 4.96 1.98 8.38 2.17zm26.8 15c7.47-1.44 13.55-5.69 9.5-13.34-7.31-13.78 4.19-15.63 7.96-23.01 3.78-7.39 6.99-15.62 3.1-26.65-3.89-11.02-18.37-6.5-18.37-6.5L270 900.3s28.77 12.38 40.26 17.63c11.48 5.26 6.85-20.77 18.53-14.12a30.55 30.55 0 0 1 6.58 5.04z"/><path id="y" d="M326.62 1017.84A76.33 76.33 0 0 1 286 950.37c0-42.18 34.24-76.37 76.47-76.37a76.26 76.26 0 0 1 53.19 21.5zM427.27 909.8a75.87 75.87 0 0 1 11.67 40.57c0 42.17-34.23 76.37-76.47 76.37-6.71 0-13.22-.87-19.42-2.49zm-7.53-10.04c.7.78 1.38 1.58 2.04 2.4z"/><path id="z" d="M389.11 912.04c7.37 4.98 21.16 6.79 13.77-7.42-7.38-14.22-21.15 2.43-13.77 7.42z"/><path id="A" d="M343.22 997.56c-12.57-7.82.64 16.31 7.53 17.02 6.89.7 5.03-9.2-7.53-17.02z"/><path id="B" d="M246.16 992.2c-26.74-11.91-20.42 43.35-36.89 90.75-8.59 19.46 9.3-5.82 18.67-2.6 9.38 3.23 3.17 27.04 11.49 17.34s11.33-17.34 23.81-17.34c12.49 0 7.36 18.65 16.74 17.34 9.38-1.31 13.06-20.37 22.48-22.2 9.43-1.82 15.58 23.79 16.92 9.9 2.34-26.78-34.2-67.99-34.2-102.02s-21.89 2.18-39.02 8.83z"/><path id="C" d="M206.3 1076.33a187.5 187.5 0 0 1-8.6 23.16c-8.59 19.46 17.77-18.32 27.14-15.1 9.38 3.23-.05 25.05 10.43 15.1 10.49-9.95 10.02-13 23.05-15.1 13.03-2.09 9.2 16.41 18.58 15.1 2.92-.4 5.5-2.8 7.95-5.96 0 0 2.44-3.36 4.22-6.12 1.53-2.07-82.77-11.08-82.77-11.08zm98.58-1.47a6.06 6.06 0 0 0-3.31-.37c-4.98.97-8.96 7.52-12.99 13.68zm18.51 9.53c.55-6.29-1.31-13.38-4.49-20.98l-14.02 11.45c8.54 3.2 17.32 21.81 18.51 9.53zm-7.71-28.02c-11.43-23.31-31.39-50.39-31.39-74 0-34.03-21.9 2.18-39.03 8.83-20.69-9.22-24.7 32.06-35.63 73.36z"/><path id="D" d="M319.36 979.16s1.98-11.63-1.51-17.43C314.35 955.92 296 947 296 947"/><path id="E" d="M234 1037.72v-95.67s16.08-5.05 32.16-5.05c16.07 0 32.15 5.05 32.15 5.05v127.55s-16.08 3.79-32.15 3.79a147.33 147.33 0 0 1-12.27-.51c-8.63-.73-19.89-3.28-19.89-3.28z"/><path id="F" d="M234 1032.91v-83.62c0-4 2.79-8.03 6.26-8.91 0 0 9.82-3.38 25.9-3.38 2.55 0 4.94.08 7.16.23zm43.98-95.28c8.94.98 14.08 2.75 14.08 2.75 3.46.92 6.26 4.92 6.26 8.92v113.06c0 4-2.83 7.85-6.33 8.51 0 0-9.75 2.52-25.83 2.52-1.84 0-3.6-.03-5.27-.09zm-24.08 135.25c-8.64-.73-13.58-1.99-13.58-1.99-3.49-.71-6.32-4.53-6.32-8.53v-27.71z"/><path id="G" d="M292.22 954.9c0-1.6-1.15-2.9-2.57-2.9h-47.08c-1.42 0-2.57 1.3-2.57 2.9v94.64c0 1.6 1.15 2.89 2.57 2.89h47.08c1.42 0 2.57-1.29 2.57-2.9z"/><path id="H" d="M248 1012v-10h37v10z"/><path id="I" d="M248 1025v-10h37v10z"/><path id="J" d="M247 1039v-10h27v10z"/><path id="K" d="M255 973.1s.23-2.61 2.08-3.05c1.85-.44 2.87 2.1 2.87 2.1"/><path id="L" d="M272 973.1s.23-2.61 2.08-3.05c1.85-.44 2.87 2.1 2.87 2.1"/><path id="M" d="M258 944.62s3.99-.62 7.97-.62c3.99 0 7.97.62 7.97.62v2.48s-3.98-.62-7.97-.62c-3.98 0-7.97.62-7.97.62z"/><path id="N" d="M215 1020.35s8.1-6.12 8.1-16.8-6.38-28.55-6.38-28.55"/><path id="O" d="M261 1063.58c0-3.08 2.21-5.58 4.95-5.58 2.73 0 4.94 2.5 4.94 5.58s-2.21 5.58-4.95 5.58c-2.73 0-4.94-2.5-4.94-5.58z"/><path id="P" d="M256.13 988.3c-.69 1.72 1.47 3.04 4.18 2.68 2.7-.35 4.71-3.21 4.05-4.48-.66-1.27-7.53.09-8.23 1.8z"/></defs><desc>Generated with Avocode.</desc><g opacity=".84" transform="translate(-112 -814)"><use fill="#f2faff" xlink:href="#a"/></g><g opacity=".84" transform="translate(-112 -814)"><use fill="#f2faff" xlink:href="#b"/></g><g opacity=".84" transform="translate(-112 -814)"><use fill="#f2faff" xlink:href="#c"/></g><g opacity=".84" transform="translate(-112 -814)"><use fill="#f2faff" xlink:href="#d"/></g><g opacity=".84" transform="translate(-112 -814)"><use fill="#f2faff" xlink:href="#e"/></g><g opacity=".84" transform="translate(-112 -814)"><use fill="#f2faff" xlink:href="#f"/></g><g opacity=".84" transform="translate(-112 -814)"><use fill="#f2faff" xlink:href="#g"/></g><g opacity=".16" transform="translate(-112 -814)"><use fill="#2e3192" xlink:href="#h"/></g><g opacity=".17" transform="translate(-112 -814)"><use fill="#2e3192" xlink:href="#i"/></g><g opacity=".3" transform="translate(-112 -814)"><use fill="#2e3192" xlink:href="#j"/></g><g opacity=".18" transform="translate(-112 -814)"><use fill="#2e3192" xlink:href="#k"/></g><g opacity=".15" transform="translate(-112 -814)"><use fill="#2e3192" xlink:href="#l"/></g><g opacity=".36" transform="translate(-112 -814)"><use fill="#fff" fill-opacity="0" stroke="#009cdc" stroke-linecap="round" stroke-miterlimit="50" stroke-width="7" xlink:href="#m"/></g><g opacity=".36" transform="translate(-112 -814)"><use fill="#fff" fill-opacity="0" stroke="#009cdc" stroke-linecap="round" stroke-miterlimit="50" stroke-width="7" xlink:href="#n"/></g><g opacity=".46" transform="translate(-112 -814)"><use fill="#fff" fill-opacity="0" stroke="#009cdc" stroke-linecap="round" stroke-miterlimit="50" stroke-width="6" xlink:href="#o"/></g><g opacity=".46" transform="translate(-112 -814)"><use fill="#fff" fill-opacity="0" stroke="#009cdc" stroke-linecap="round" stroke-miterlimit="50" stroke-width="6" xlink:href="#p"/></g><g opacity=".22" transform="translate(-112 -814)"><use fill="#2e3192" xlink:href="#q"/></g><g opacity=".14" transform="translate(-112 -814)"><use fill="#2e3192" xlink:href="#r"/></g><g opacity=".39" transform="translate(-112 -814)"><use fill="#fff" fill-opacity="0" stroke="#009cdc" stroke-linecap="round" stroke-miterlimit="50" stroke-width="6" xlink:href="#s"/></g><g opacity=".39" transform="translate(-112 -814)"><use fill="#fff" fill-opacity="0" stroke="#009cdc" stroke-linecap="round" stroke-miterlimit="50" stroke-width="6" xlink:href="#s"/></g><g transform="translate(-112 -814)"><use fill="#fff" xlink:href="#t"/></g><g transform="translate(-112 -814)"><use fill="#f2faff" xlink:href="#u"/></g><g transform="translate(-112 -814)"><use fill="#fff" fill-opacity="0" stroke="#7c8495" stroke-linecap="round" stroke-miterlimit="50" stroke-width="4" xlink:href="#v"/></g><g transform="translate(-112 -814)"><use fill="#f2faff" xlink:href="#w"/></g><g transform="translate(-112 -814)"><use fill="#fff" fill-opacity="0" stroke="#7c8495" stroke-linecap="round" stroke-miterlimit="50" stroke-width="4" xlink:href="#x"/></g><g transform="translate(-112 -814)"><use fill="#fff" fill-opacity="0" stroke="#7c8495" stroke-linecap="round" stroke-miterlimit="50" stroke-width="4" xlink:href="#y"/></g><g transform="translate(-112 -814)"><use fill="#009cdc" xlink:href="#z"/><use fill="#fff" fill-opacity="0" stroke="#7c8495" stroke-miterlimit="50" stroke-width="4" xlink:href="#z"/></g><g transform="translate(-112 -814)"><use fill="#009cdc" xlink:href="#A"/><use fill="#fff" fill-opacity="0" stroke="#7c8495" stroke-miterlimit="50" stroke-width="4" xlink:href="#A"/></g><g transform="translate(-112 -814)"><use fill="#228fd8" xlink:href="#B"/></g><g transform="translate(-112 -814)"><use fill="#fff" fill-opacity="0" stroke="#7c8495" stroke-linecap="round" stroke-miterlimit="50" stroke-width="4" xlink:href="#C"/></g><g transform="translate(-112 -814)"><use fill="#fff" fill-opacity="0" stroke="#6e7585" stroke-linecap="round" stroke-linejoin="round" stroke-miterlimit="50" stroke-width="6" xlink:href="#D"/></g><g transform="translate(-112 -814)"><use fill="#f2faff" xlink:href="#E"/></g><g transform="translate(-112 -814)"><use fill="#fff" fill-opacity="0" stroke="#7c8495" stroke-linecap="round" stroke-linejoin="round" stroke-miterlimit="50" stroke-width="4" xlink:href="#F"/></g><g transform="translate(-112 -814)"><use fill="#fff" xlink:href="#G"/><use fill="#fff" fill-opacity="0" stroke="#7c8495" stroke-linecap="round" stroke-linejoin="round" stroke-miterlimit="50" stroke-width="4" xlink:href="#G"/></g><g transform="translate(-112 -814)"><use fill="#9bd9f2" xlink:href="#H"/></g><g transform="translate(-112 -814)"><use fill="#9bd9f2" xlink:href="#I"/></g><g transform="translate(-112 -814)"><use fill="#9bd9f2" xlink:href="#J"/></g><g transform="translate(-112 -814)"><use fill="#fff" fill-opacity="0" stroke="#7c8495" stroke-linecap="round" stroke-linejoin="round" stroke-miterlimit="50" stroke-width="4" xlink:href="#K"/></g><g transform="translate(-112 -814)"><use fill="#fff" fill-opacity="0" stroke="#7c8495" stroke-linecap="round" stroke-linejoin="round" stroke-miterlimit="50" stroke-width="4" xlink:href="#L"/></g><g transform="translate(-112 -814)"><use fill="#c8ced3" xlink:href="#M"/></g><g transform="translate(-112 -814)"><use fill="#fff" fill-opacity="0" stroke="#6e7585" stroke-linecap="round" stroke-linejoin="round" stroke-miterlimit="50" stroke-width="6" xlink:href="#N"/></g><g transform="translate(-112 -814)"><use fill="#c8ced3" xlink:href="#O"/></g><g transform="translate(-112 -814)"><use fill="#7c8495" xlink:href="#P"/></g></svg>