<svg xmlns="http://www.w3.org/2000/svg" xmlns:xlink="http://www.w3.org/1999/xlink" width="416" height="282" viewBox="0 0 416 282"><defs><path id="a" d="M664 2215.63a21.62 21.62 0 0 1 21.63-21.63H962.1a21.62 21.62 0 1 1 0 43.25H685.62a21.62 21.62 0 0 1-21.62-21.63z"/><path id="b" d="M680 1999.63a21.62 21.62 0 0 1 21.63-21.63h301.56a21.62 21.62 0 1 1 0 43.25H701.63a21.62 21.62 0 0 1-21.63-21.63z"/><path id="c" d="M714.63 2151h303.63a21.62 21.62 0 1 1 0 43.25H714.63c-1.1 0-2.18-.08-3.24-.24a21.63 21.63 0 0 0 0-42.77 21.8 21.8 0 0 1 3.24-.24z"/><path id="d" d="M670.63 2108h276.49c1.45 0 2.87.14 4.25.42a21.63 21.63 0 0 0 0 42.41c-1.38.28-2.8.42-4.25.42h-276.5a21.62 21.62 0 1 1 0-43.25z"/><path id="e" d="M682.63 2064h322.25a21.62 21.62 0 1 1 0 43.25H682.63c-.98 0-1.94-.06-2.88-.19a21.63 21.63 0 0 0 0-42.87c.94-.13 1.9-.19 2.88-.19z"/><path id="f" d="M654.63 2021h313a21.62 21.62 0 1 0 0 43.25h-313a21.62 21.62 0 1 1 0-43.25z"/><path id="g" d="M974 1977.62a5.63 5.63 0 1 1 11.25.01 5.63 5.63 0 0 1-11.25-.01z"/><path id="h" d="M951 2212.38a3.38 3.38 0 1 1 6.76 0 3.38 3.38 0 0 1-6.76 0z"/><path id="i" d="M986 2024.24a5.25 5.25 0 1 1 10.5.02 5.25 5.25 0 0 1-10.5-.02z"/><path id="j" d="M729 2002.24a5.25 5.25 0 1 1 10.5.02 5.25 5.25 0 0 1-10.5-.02z"/><path id="k" d="M667 2045.38a3.38 3.38 0 1 1 6.76 0 3.38 3.38 0 0 1-6.76 0z"/><path id="l" d="M789 1966.17h14.82"/><path id="m" d="M789 1965.17h14.82"/><path id="n" d="M691 2149.06h16.47"/><path id="o" d="M649 2175.62a5.63 5.63 0 1 1 11.25.01 5.63 5.63 0 0 1-11.25-.01z"/><path id="p" d="M624 2135.38a3.38 3.38 0 1 1 6.76 0 3.38 3.38 0 0 1-6.76 0z"/><path id="q" d="M988 2123.38h10.82"/><path id="s" d="M803 2015l1.79 6.55"/><path id="t" d="M824.79 2008l-1.79 19.66"/><path id="u" d="M847.75 2021l-7.75 9.53"/><path id="v" d="M1010.04 2092.76s2.21-11.49-1.69-17.22C1004.46 2069.8 984 2061 984 2061"/><path id="w" d="M826 2130.77s9.03-6.04 9.03-16.58c0-10.55-7.11-28.19-7.11-28.19"/><path id="x" d="M914.12 2053h31.75c17.92 0 39.65 5.9 39.65 5.9s-1.72 66.48 0 91.15c1.72 24.66 8.64 32.63 8.64 32.63H841.95s7.67-23.22 8.57-32.63c.9-9.42 0-91.15 0-91.15z"/><path id="y" d="M967.23 2055.19a83.53 83.53 0 0 1 11.72 2.22 9.54 9.54 0 0 1 6.94 8.84v82.46c0 7.72 11 15.45 11 23.17 0 3.95-156.89 3.94-156.89 0l10.21-24.31zm-117.02 68.36v-57.3c0-3.95 3.11-7.93 6.96-8.8 0 0 16.83-3.42 40.61-4.45 2.84 0-47.57 70.55-47.57 70.55z"/><path id="z" d="M996.68 2172c0 3.95-4.3 12.73-12.25 12.73 3.68 0-20.23 1.17-69.59 1.17s-64.55-1.17-64.55-1.17c-5.97 0-10.29-8.78-10.29-12.72"/><path id="A" d="M977.77 2148.04c-49.35 0-136.78 1.52-126.77 0 .53-.08 126.77 0 126.77 0z"/><path id="B" d="M957.31 2053.64s-13.03-1.48-25.66-1.48c-8.42-.01-15.19-.35-23.65 0"/><path id="C" d="M958.18 2141.16h-98.32a2.86 2.86 0 0 1-2.86-2.86v-72.44a2.86 2.86 0 0 1 2.86-2.86h116.49a2.86 2.86 0 0 1 2.85 2.86v72.44a2.86 2.86 0 0 1-2.86 2.86h-7.83"/><path id="D" d="M867 2120v-10h101.58v10z"/><path id="E" d="M894 2134v-10h74.13v10z"/><path id="F" d="M908 2083.06s.25-2.58 2.31-3.01c2.07-.43 3.2 2.08 3.2 2.08"/><path id="G" d="M927 2083.06s.25-2.58 2.31-3.01c2.07-.43 3.2 2.08 3.2 2.08"/><path id="H" d="M913.15 2098.28c-.78 1.69 1.63 2.99 4.65 2.64 3.02-.35 5.26-3.17 4.52-4.43-.74-1.25-8.4.09-9.17 1.79z"/><path id="I" d="M813.04 2092.76s2.21-11.49-1.69-17.22C807.46 2069.8 787 2061 787 2061"/><path id="J" d="M717 2055.99s17.92-4.99 35.84-4.99 35.84 4.99 35.84 4.99v125.93s-17.92 3.74-35.84 3.74-35.84-3.74-35.84-3.74z"/><path id="K" d="M746.96 2185.57c1.86.06 3.82.09 5.88.09 17.92 0 28.8-2.49 28.8-2.49 3.89-.65 7.04-4.45 7.04-8.4v-29.65zM717 2154.61v20.16a8.86 8.86 0 0 0 7.02 8.42s5.58 1.26 15.31 1.98zm71.68-18.82v-72.65a9.48 9.48 0 0 0-6.95-8.8s-10.97-3.34-28.89-3.34-28.89 3.34-28.89 3.34c-3.85.86-6.95 4.85-6.95 8.8v59.52z"/><path id="L" d="M741.18 2066h37.16a2.86 2.86 0 0 1 2.86 2.86v93.44a2.86 2.86 0 0 1-2.85 2.86h-52.49a2.86 2.86 0 0 1-2.86-2.86v-93.44a2.86 2.86 0 0 1 2.86-2.86h7.49"/><path id="M" d="M734 2126v-10h37v10z"/><path id="N" d="M734 2140v-10h37v10z"/><path id="O" d="M734 2154v-10h27v10z"/><path id="P" d="M740 2086.06s.25-2.58 2.31-3.01c2.07-.43 3.2 2.08 3.2 2.08"/><path id="Q" d="M759 2086.06s.25-2.58 2.31-3.01c2.07-.43 3.2 2.08 3.2 2.08"/><path id="R" d="M744 2057.61s4.44-.61 8.88-.61c4.45 0 8.89.61 8.89.61v2.45s-4.44-.61-8.89-.61c-4.44 0-8.88.61-8.88.61z"/><path id="S" d="M696 2133.77s9.03-6.04 9.03-16.58c0-10.55-7.11-28.19-7.11-28.19"/><path id="T" d="M747 2175.51a5.51 5.51 0 1 1 11.03 0 5.51 5.51 0 0 1-11.03 0z"/><path id="U" d="M747.15 2101.28c-.78 1.69 1.63 2.99 4.65 2.64 3.02-.35 5.26-3.17 4.52-4.43-.74-1.25-8.4.09-9.17 1.79z"/></defs><desc>Generated with Avocode.</desc><g opacity=".84" transform="translate(-624 -1956)"><use fill="#f2faff" xlink:href="#a"/></g><g opacity=".84" transform="translate(-624 -1956)"><use fill="#f2faff" xlink:href="#b"/></g><g opacity=".84" transform="translate(-624 -1956)"><use fill="#f2faff" xlink:href="#c"/></g><g opacity=".84" transform="translate(-624 -1956)"><use fill="#f2faff" xlink:href="#d"/></g><g opacity=".84" transform="translate(-624 -1956)"><use fill="#f2faff" xlink:href="#e"/></g><g opacity=".84" transform="translate(-624 -1956)"><use fill="#f2faff" xlink:href="#f"/></g><g opacity=".16" transform="translate(-624 -1956)"><use fill="#2e3192" xlink:href="#g"/></g><g opacity=".17" transform="translate(-624 -1956)"><use fill="#2e3192" xlink:href="#h"/></g><g opacity=".3" transform="translate(-624 -1956)"><use fill="#2e3192" xlink:href="#i"/></g><g opacity=".18" transform="translate(-624 -1956)"><use fill="#2e3192" xlink:href="#j"/></g><g opacity=".15" transform="translate(-624 -1956)"><use fill="#2e3192" xlink:href="#k"/></g><g opacity=".36" transform="translate(-624 -1956)"><use fill="#fff" fill-opacity="0" stroke="#009cdc" stroke-linecap="round" stroke-miterlimit="50" stroke-width="7" xlink:href="#l"/></g><g opacity=".36" transform="translate(-624 -1956)"><use fill="#fff" fill-opacity="0" stroke="#009cdc" stroke-linecap="round" stroke-miterlimit="50" stroke-width="7" xlink:href="#m"/></g><g opacity=".46" transform="translate(-624 -1956)"><use fill="#fff" fill-opacity="0" stroke="#009cdc" stroke-linecap="round" stroke-miterlimit="50" stroke-width="6" xlink:href="#n"/></g><g opacity=".46" transform="translate(-624 -1956)"><use fill="#fff" fill-opacity="0" stroke="#009cdc" stroke-linecap="round" stroke-miterlimit="50" stroke-width="6" xlink:href="#n"/></g><g opacity=".22" transform="translate(-624 -1956)"><use fill="#2e3192" xlink:href="#o"/></g><g opacity=".14" transform="translate(-624 -1956)"><use fill="#2e3192" xlink:href="#p"/></g><g opacity=".39" transform="translate(-624 -1956)"><use fill="#fff" fill-opacity="0" stroke="#009cdc" stroke-linecap="round" stroke-miterlimit="50" stroke-width="6" xlink:href="#q"/></g><g opacity=".39" transform="translate(-624 -1956)"><use fill="#fff" fill-opacity="0" stroke="#009cdc" stroke-linecap="round" stroke-miterlimit="50" stroke-width="6" xlink:href="#q"/></g><g opacity=".64" transform="translate(-624 -1956)"><use fill="#fff" fill-opacity="0" stroke="#8adaf8" stroke-linecap="round" stroke-miterlimit="50" stroke-width="5" xlink:href="#r"/></g><g opacity=".56" transform="translate(-624 -1956)"><use fill="#fff" fill-opacity="0" stroke="#8adaf8" stroke-linecap="round" stroke-miterlimit="50" stroke-width="5" xlink:href="#s"/></g><g opacity=".85" transform="translate(-624 -1956)"><use fill="#fff" fill-opacity="0" stroke="#8adaf8" stroke-linecap="round" stroke-miterlimit="50" stroke-width="5" xlink:href="#t"/></g><g opacity=".68" transform="translate(-624 -1956)"><use fill="#fff" fill-opacity="0" stroke="#8adaf8" stroke-linecap="round" stroke-miterlimit="50" stroke-width="5" xlink:href="#u"/></g><g transform="translate(-624 -1956)"><use fill="#fff" fill-opacity="0" stroke="#6e7585" stroke-linecap="round" stroke-linejoin="round" stroke-miterlimit="50" stroke-width="7.2" xlink:href="#v"/></g><g transform="translate(-624 -1956)"><use fill="#fff" fill-opacity="0" stroke="#6e7585" stroke-linecap="round" stroke-linejoin="round" stroke-miterlimit="50" stroke-width="7.2" xlink:href="#w"/></g><g transform="translate(-624 -1956)"><use fill="#f6f9fc" xlink:href="#x"/></g><g transform="translate(-624 -1956)"><use fill="#fff" fill-opacity="0" stroke="#7c8495" stroke-linecap="round" stroke-linejoin="round" stroke-miterlimit="50" stroke-width="4.8" xlink:href="#y"/></g><g transform="translate(-624 -1956)"><use fill="#fff" fill-opacity="0" stroke="#7c8495" stroke-linecap="round" stroke-linejoin="round" stroke-miterlimit="50" stroke-width="4.8" xlink:href="#z"/></g><g transform="translate(-624 -1956)"><use fill="#fff" fill-opacity="0" stroke="#7c8495" stroke-linecap="round" stroke-linejoin="round" stroke-miterlimit="50" stroke-width="4.8" xlink:href="#A"/></g><g transform="translate(-624 -1956)"><use fill="#fff" fill-opacity="0" stroke="#7c8495" stroke-linecap="round" stroke-linejoin="round" stroke-miterlimit="50" stroke-width="4.8" xlink:href="#B"/></g><g transform="translate(-624 -1956)"><use fill="#fff" xlink:href="#C"/><use fill="#fff" fill-opacity="0" stroke="#7c8495" stroke-linecap="round" stroke-linejoin="round" stroke-miterlimit="50" stroke-width="4.8" xlink:href="#C"/></g><g transform="translate(-624 -1956)"><use fill="#009cdc" fill-opacity=".3" xlink:href="#D"/></g><g transform="translate(-624 -1956)"><use fill="#009cdc" fill-opacity=".3" xlink:href="#E"/></g><g transform="translate(-624 -1956)"><use fill="#fff" fill-opacity="0" stroke="#7c8495" stroke-linecap="round" stroke-linejoin="round" stroke-miterlimit="50" stroke-width="4.8" xlink:href="#F"/></g><g transform="translate(-624 -1956)"><use fill="#fff" fill-opacity="0" stroke="#7c8495" stroke-linecap="round" stroke-linejoin="round" stroke-miterlimit="50" stroke-width="4.8" xlink:href="#G"/></g><g transform="translate(-624 -1956)"><use fill="#7c8495" xlink:href="#H"/></g><g transform="translate(-624 -1956)"><use fill="#fff" fill-opacity="0" stroke="#6e7585" stroke-linecap="round" stroke-linejoin="round" stroke-miterlimit="50" stroke-width="7.2" xlink:href="#I"/></g><g transform="translate(-624 -1956)"><use fill="#f6f9fc" xlink:href="#J"/></g><g transform="translate(-624 -1956)"><use fill="#fff" fill-opacity="0" stroke="#7c8495" stroke-linecap="round" stroke-linejoin="round" stroke-miterlimit="50" stroke-width="4.8" xlink:href="#K"/></g><g transform="translate(-624 -1956)"><use fill="#fff" xlink:href="#L"/><use fill="#fff" fill-opacity="0" stroke="#7c8495" stroke-linecap="round" stroke-linejoin="round" stroke-miterlimit="50" stroke-width="4.8" xlink:href="#L"/></g><g transform="translate(-624 -1956)"><use fill="#009cdc" fill-opacity=".3" xlink:href="#M"/></g><g transform="translate(-624 -1956)"><use fill="#009cdc" fill-opacity=".3" xlink:href="#N"/></g><g transform="translate(-624 -1956)"><use fill="#009cdc" fill-opacity=".3" xlink:href="#O"/></g><g transform="translate(-624 -1956)"><use fill="#fff" fill-opacity="0" stroke="#7c8495" stroke-linecap="round" stroke-linejoin="round" stroke-miterlimit="50" stroke-width="4.8" xlink:href="#P"/></g><g transform="translate(-624 -1956)"><use fill="#fff" fill-opacity="0" stroke="#7c8495" stroke-linecap="round" stroke-linejoin="round" stroke-miterlimit="50" stroke-width="4.8" xlink:href="#Q"/></g><g transform="translate(-624 -1956)"><use fill="#e1ebf7" xlink:href="#R"/></g><g transform="translate(-624 -1956)"><use fill="#fff" fill-opacity="0" stroke="#6e7585" stroke-linecap="round" stroke-linejoin="round" stroke-miterlimit="50" stroke-width="7.2" xlink:href="#S"/></g><g transform="translate(-624 -1956)"><use fill="#e1ebf7" xlink:href="#T"/></g><g transform="translate(-624 -1956)"><use fill="#7c8495" xlink:href="#U"/></g></svg>