<svg xmlns="http://www.w3.org/2000/svg" xmlns:xlink="http://www.w3.org/1999/xlink" width="26" height="25" viewBox="0 0 26 25"><defs><path id="a" d="M1024.53 2339c6.88 0 12.52 5.63 12.52 12.5 0 6.88-5.64 12.5-12.52 12.5a12.55 12.55 0 0 1-12.53-12.5c0-6.87 5.64-12.5 12.53-12.5zm5.01 9.92c.47-.31.93-.78 1.4-1.4-.47.15-.93.31-1.48.39.47-.32.94-.78 1.09-1.41-.47.31-1.09.55-1.64.63a2.75 2.75 0 0 0-1.88-.79 2.6 2.6 0 0 0-2.58 2.58c0 .16 0 .39.08.55a7.06 7.06 0 0 1-5.33-2.66c-.15.39-.31.86-.31 1.33 0 .86.47 1.64 1.17 2.11-.47 0-.86-.16-1.17-.31 0 1.25.86 2.26 2.03 2.5-.23.08-.47.08-.7.08-.16 0-.31-.08-.47-.08a2.7 2.7 0 0 0 2.43 1.79 5.11 5.11 0 0 1-3.21 1.1h-.63a6.65 6.65 0 0 0 3.92 1.17 7.25 7.25 0 0 0 7.28-7.27v-.31z"/></defs><desc>Generated with Avocode.</desc><g transform="translate(-1012 -2339)"><use fill="#009cdc" xlink:href="#a"/></g></svg>