<?xml version="1.0" encoding="UTF-8" standalone="no"?>
<svg width="19px" height="16px" viewBox="0 0 19 16" version="1.1" xmlns="http://www.w3.org/2000/svg" xmlns:xlink="http://www.w3.org/1999/xlink">
    <!-- Generator: Sketch 45.2 (43514) - http://www.bohemiancoding.com/sketch -->
    <title>icons8-User Group Man Man (1)</title>
    <desc>Created with Sketch.</desc>
    <defs></defs>
    <g id="Main" stroke="none" stroke-width="1" fill="none" fill-rule="evenodd">
        <g id="Dashboard-Superuser" transform="translate(-15.000000, -84.000000)" fill-rule="nonzero" fill="#FFFFFF">
            <g id="icons8-User-Group-Man-Man-(1)" transform="translate(15.000000, 84.000000)">
                <path d="M7.70769231,0.151162791 C5.98269231,0.183139721 4.88076923,0.885174326 4.40769231,1.97674419 C3.95625009,3.01598847 4.05721145,4.32848856 4.38461538,5.68604651 C4.20865403,5.89389544 4.06874991,6.17296521 4.11923077,6.59302326 C4.17403865,7.05087219 4.29951914,7.37645358 4.47692308,7.60465116 C4.575,7.72965135 4.70336529,7.74127926 4.82307692,7.80232558 C4.88798068,8.19186047 4.99615385,8.58139535 5.15769231,8.90697674 C5.25,9.09447665 5.35528837,9.26744186 5.45769231,9.40697674 C5.50384615,9.46947684 5.57019249,9.50581395 5.61923077,9.55813953 C5.62211557,10.0174419 5.62355778,10.3997094 5.58461538,10.8837209 C5.46490375,11.175872 5.18509625,11.4113373 4.73076923,11.6395349 C4.26201932,11.8750002 3.65192308,12.0930233 3.03461538,12.3604651 C2.41730769,12.627907 1.78269231,12.9534884 1.28076923,13.4651163 C0.778846154,13.9767442 0.424038646,14.6787792 0.369230769,15.6046512 L0.346153846,16 L15.1615385,16 L15.1384615,15.6046512 C15.0995191,14.9607557 14.9192308,14.4273258 14.6423077,13.9883721 L18.8538462,13.9883721 L18.8307692,13.5930233 C18.7831732,12.8008722 18.4759617,12.1845931 18.0461538,11.744186 C17.6163463,11.303779 17.0783653,11.0290698 16.5576923,10.8023256 C16.0370193,10.5755814 15.5264422,10.4055233 15.1384615,10.2093023 C14.7634615,10.020349 14.5514422,9.82994195 14.4576923,9.60465116 C14.4274039,9.21366288 14.4201925,8.89534884 14.4230769,8.52325581 C14.4591345,8.48255814 14.5168268,8.45348837 14.55,8.40697674 C14.6379807,8.28488372 14.7259617,8.13662809 14.8038462,7.97674419 C14.9350962,7.70494177 15.0245191,7.38372093 15.0807692,7.05813953 C15.1774039,7.00436056 15.2798079,6.99563944 15.3576923,6.89534884 C15.5163463,6.69186047 15.6216347,6.41569786 15.6692308,6.02325581 L15.6692308,6.01162791 C15.7096154,5.67151181 15.6,5.44331386 15.4615385,5.25581395 C15.6144233,4.7514534 15.8019231,3.95639553 15.7384615,3.12790698 C15.7024039,2.67151181 15.5884615,2.21075572 15.3115385,1.8255814 C15.0490386,1.45930233 14.6192308,1.19040707 14.0769231,1.09302326 C13.725,0.699127814 13.1697116,0.523255814 12.5192308,0.523255814 C11.6235578,0.539244279 10.9283653,0.763081302 10.4192308,1.1627907 C10.1870193,1.01744186 9.91586548,0.911337302 9.61153846,0.848837209 C9.22355778,0.34156986 8.52548086,0.151162791 7.71923077,0.151162791 L7.70769231,0.151162791 Z M7.71923077,0.895348837 C7.72355778,0.895348837 7.72644222,0.895348837 7.73076923,0.895348837 C8.47355778,0.898256 8.95528837,1.11773247 9.09230769,1.36046512 L9.18461538,1.51162791 L9.35769231,1.53488372 C9.87115385,1.60610456 10.1653846,1.81540688 10.3730769,2.10465116 C10.5807692,2.39389544 10.6961538,2.79796502 10.7307692,3.24418605 C10.8,4.13662809 10.5447116,5.175872 10.3846154,5.6627907 L10.2923077,5.95348837 L10.5461538,6.10465116 C10.5302884,6.09447665 10.6875002,6.20203498 10.65,6.51162791 C10.606731,6.87645358 10.5201925,7.06540688 10.4538462,7.15116279 C10.3875002,7.2369187 10.3528848,7.23255814 10.35,7.23255814 L10.0384615,7.25581395 L10.0038462,7.55813953 C9.96923077,7.88081414 9.84086548,8.27325581 9.69230769,8.58139535 C9.61730769,8.7354653 9.54086548,8.87063963 9.47307692,8.96511628 C9.40528837,9.05959293 9.33317317,9.11191851 9.36923077,9.09302326 L9.17307692,9.19767442 L9.17307692,9.41860465 C9.17307692,9.95784893 9.15144222,10.3997094 9.20769231,11.0232558 L9.20769231,11.0697674 L9.23076923,11.1162791 C9.44134634,11.6874999 9.92884615,12.0436048 10.4653846,12.3139535 C11.0019231,12.5843025 11.6177886,12.7834303 12.1961538,13.0348837 C12.6908655,13.25 13.1437499,13.505814 13.5115385,13.8255814 C13.5129807,13.8270348 13.5100962,13.8357559 13.5115385,13.8372093 C13.5288462,13.8546512 13.5490386,13.8706396 13.5692308,13.8837209 C13.5923077,13.9113373 13.6197116,13.9345931 13.65,13.9534884 C13.6514422,13.9549418 13.6600962,13.952035 13.6615385,13.9534884 C13.6730769,13.9651163 13.6846154,13.9767442 13.6961538,13.9883721 C14.0076923,14.3066861 14.2038462,14.7281976 14.3076923,15.255814 L1.2,15.255814 C1.30384615,14.7296513 1.49855778,14.3066861 1.81153846,13.9883721 C2.20528837,13.5872093 2.74182683,13.2863371 3.32307692,13.0348837 C3.90432702,12.7834303 4.51586548,12.5843025 5.05384615,12.3139535 C5.59182683,12.0436048 6.08942326,11.6874999 6.3,11.1162791 L6.32307692,11.0232558 C6.37932702,10.3997094 6.35769231,9.95784893 6.35769231,9.41860465 L6.35769231,9.19767442 L6.16153846,9.09302326 C6.19471163,9.11046512 6.11538462,9.05959293 6.04615385,8.96511628 C5.97692308,8.87063963 5.89182683,8.7354653 5.81538462,8.58139535 C5.66250018,8.27325581 5.53701932,7.87645358 5.50384615,7.55813953 L5.46923077,7.25581395 L5.15769231,7.23255814 C5.15480788,7.23255814 5.12019249,7.2369187 5.05384615,7.15116279 C4.98750018,7.06540688 4.90096172,6.87645358 4.85769231,6.51162791 C4.82163471,6.20203498 4.97740394,6.09447665 4.96153846,6.10465116 L5.20384615,5.95348837 L5.13461538,5.68604651 C4.78701932,4.3372093 4.72644222,3.11191851 5.08846154,2.27906977 C5.44903865,1.44912781 6.18461538,0.927325767 7.71923077,0.895348837 Z M12.5192308,1.26744186 C12.5235578,1.26744186 12.5264422,1.26744186 12.5307692,1.26744186 C13.1451925,1.27034902 13.5288462,1.45348837 13.6269231,1.62790698 L13.7192308,1.77906977 L13.8923077,1.81395349 C14.3120193,1.87209302 14.545673,2.02470921 14.7115385,2.25581395 C14.8774039,2.4869187 14.9711538,2.81686065 15,3.18604651 C15.0576923,3.9244186 14.8442308,4.80377898 14.7115385,5.20930233 L14.6192308,5.48837209 L14.8730769,5.63953488 C14.8399038,5.61918623 14.9711538,5.69040707 14.9423077,5.93023256 C14.9062501,6.23110474 14.8283653,6.38081414 14.7807692,6.44186047 C14.7331732,6.50290716 14.7216347,6.48982549 14.7346154,6.48837209 L14.4230769,6.51162791 L14.4,6.81395349 C14.3725961,7.0755814 14.2572114,7.39680223 14.1346154,7.65116279 C14.0725961,7.77761637 14.0163463,7.88953488 13.9615385,7.96511628 C13.9283653,8.01017451 13.9052884,8.04360484 13.8923077,8.05813953 L13.8807692,8.05813953 C13.879327,8.05959293 13.8807692,8.06976744 13.8807692,8.06976744 L13.6846154,8.1627907 L13.6846154,8.38372093 C13.6846154,8.83575591 13.6716347,9.21511628 13.7192308,9.74418605 L13.7192308,9.79069767 L13.7423077,9.8372093 C13.9283653,10.3386627 14.3581732,10.6409883 14.8153846,10.872093 C15.2725961,11.1031978 15.7846154,11.2776164 16.2692308,11.4883721 C16.7538462,11.6991278 17.1937499,11.9389537 17.5153846,12.2674419 C17.7576923,12.5159885 17.9091345,12.8459304 18,13.244186 L13.9846154,13.244186 C13.5302884,12.8561046 13.0052884,12.5872093 12.4846154,12.3604651 C11.8701925,12.0930233 11.2673077,11.8750002 10.8,11.6395349 C10.3514422,11.4127907 10.0687499,11.1831397 9.94615385,10.8953488 C9.90576923,10.4055233 9.90865403,10.0218024 9.91153846,9.55813953 C9.95913452,9.50581395 10.0283653,9.46947684 10.0730769,9.40697674 C10.1740386,9.26598847 10.270673,9.09447665 10.3615385,8.90697674 C10.5187499,8.58139535 10.6326923,8.19040707 10.6961538,7.80232558 C10.8115385,7.74127926 10.9355771,7.72674419 11.0307692,7.60465116 C11.2081732,7.37645358 11.333654,7.05087219 11.3884615,6.59302326 C11.4375002,6.18604651 11.3019231,5.91715126 11.1346154,5.70930233 C11.3149038,5.11918623 11.545673,4.16569786 11.4692308,3.18604651 C11.4274039,2.65116279 11.2918268,2.11773247 10.9730769,1.6744186 C10.9716347,1.67151181 10.9745191,1.66569786 10.9730769,1.6627907 C11.320673,1.43023256 11.8153846,1.28197693 12.5192308,1.26744186 Z" id="Shape"></path>
            </g>
        </g>
    </g>
</svg>