<svg xmlns="http://www.w3.org/2000/svg" width="18" height="12" viewBox="0 0 18 12"><path fill="#fff" d="M15.35 7.9c1.39 1.3 1.68 1.94 1.73 2.02.57.96-.64 1.04-.64 1.04l-2.31.03s-.5.1-1.16-.35c-.86-.6-2.05-2.17-2.68-1.96-.65.2-.44 1.84-.44 1.84s0 .2-.15.36c-.16.17-.47.11-.47.11h-.67S6.09 11 4.08 8.88C1.88 6.57.05 2.25.05 2.25s-.11-.28.01-.42c.13-.17.51-.16.51-.16h2.47s.23.03.4.15c.14.1.22.3.22.3s.3.8.83 1.73C5.52 5.66 6 6.05 6.35 5.86c.52-.29.36-2.56.36-2.56s.01-.82-.26-1.19c-.2-.29-.59-.37-.77-.39-.14-.02.09-.35.39-.49A5.54 5.54 0 0 1 8.23 1h1c.86.21.57 1.01.57 2.94 0 .62-.11 1.49.33 1.78.19.13.87.14 2.03-1.85.55-.94.99-1.83.99-1.83s.09-.2.23-.29c.14-.08.33-.08.33-.08l2.61.01s.79-.1.91.26c.14.38-.32 1.03-1.38 2.47-1.75 2.35-1.95 2.13-.5 3.49z"/></svg>