<svg width="15px" height="13px" viewBox="0 0 15 13" version="1.1" xmlns="http://www.w3.org/2000/svg" xmlns:xlink="http://www.w3.org/1999/xlink">
    <path d="M7.5,0.0097656 C6.9573896,0.0097656 6.4149942,0.2673272 6.1054688,0.7832031 L0.22460938,10.603516 C-0.39869888,11.643796 0.4038811,12.998047 1.6191406,12.998047 L13.380859,12.998047 C14.596119,12.998047 15.398699,11.643796 14.775391,10.603516 L8.8945312,0.7832031 C8.5850058,0.2673272 8.0426104,0.0097656 7.5,0.0097656 Z M7.5,0.9902344 C7.7073896,0.9902344 7.914635,1.092751 8.0371094,1.296875 L13.917969,11.117188 C14.164661,11.528908 13.891599,11.998047 13.380859,11.998047 L1.6191406,11.998047 C1.1084002,11.998047 0.83533954,11.528907 1.0820312,11.117188 L6.9628906,1.296875 C7.085365,1.092751 7.2926104,0.9902344 7.5,0.9902344 Z M6.9902344,4 L6.9902344,4.5 L6.9902344,8.5 L6.9902344,9 L7.9902344,9 L7.9902344,8.5 L7.9902344,4.5 L7.9902344,4 L6.9902344,4 Z M6.9902344,10 L6.9902344,11 L7.9902344,11 L7.9902344,10 L6.9902344,10 Z" id="Shape" stroke="none" fill="#727171" fill-rule="evenodd"></path>
</svg>