<svg xmlns="http://www.w3.org/2000/svg" width="16" height="16" viewBox="0 0 16 16"><path fill="#fff" d="M1 0a1 1 0 0 0-1 1v8.67a1 1 0 0 0 1 1h4.33V15a1 1 0 0 0 1 1H15a1 1 0 0 0 1-1V6.33a1 1 0 0 0-1-1h-4.33V1a1 1 0 0 0-1-1zm13.09.09l-1.66 1.67-.23.24.23.24 1.66 1.67.48-.48L13.15 2 14.57.57zM1 .67h8.67c.18 0 .33.15.33.33v4.52l-.14.15.47.47.15-.14H15c.18 0 .33.15.33.33V15c0 .18-.15.33-.33.33H6.33A.33.33 0 0 1 6 15v-4.52l.14-.15-.47-.47-.15.14H1a.33.33 0 0 1-.33-.33V1C.67.82.82.67 1 .67zm4 1.66V3H2.33v.67h4.39c-.07.79-.67 1.54-1.4 2.16a3.98 3.98 0 0 1-.87-.66c-.27-.29-.42-.58-.42-.9h-.67c0 .53.26.99.6 1.36.23.25.51.47.8.65-.96.68-1.9 1.08-1.9 1.08l.28.61s1.04-.44 2.09-1.2l.18-.13c.75.38 1.43.58 1.43.58l.18-.64s-.48-.15-1.05-.41c.73-.67 1.35-1.51 1.42-2.5h.94V3H5.67v-.67zm4.4 3.81l-.47.45.48.48.45-.47zm-.93.92L8 7.53l.47.47.47-.47zm1.8.91l-2.24 5.7h.77l.64-1.73h2.39l.64 1.73h.83l-2.24-5.7zM7.53 8l-.47.46.48.48.46-.47zm3.11.64l.96 2.66H9.67zm-4.04.29l-.46.47.46.46.47-.46zm-3.36 4.83l.23.24-.23.24-1.67 1.67-.48-.48L2.52 14l-1.43-1.43.48-.48z"/></svg>