<svg xmlns="http://www.w3.org/2000/svg" width="10" height="12" viewBox="0 0 10 12"><path fill="#fff" d="M4.29 0C5 0 5.71.86 5.71 1.71H5S4.9.86 4.29.86H1.43c-.4 0-.72.38-.72.85v6c0 .48.32.86.72.86h1.78v.86H1.43C.64 9.43 0 8.66 0 7.71v-6C0 .77.64 0 1.43 0zm2.85 2.14c.38 0 .74.43 1.35 1.18l.27.31.27.32c.62.73.97 1.17.97 1.62v4.72c0 .94-.64 1.71-1.43 1.71H5c-.79 0-1.43-.77-1.43-1.71V3.86c0-.95.64-1.72 1.43-1.72zM4.29 3.86v6.43c0 .47.32.85.71.85h3.57c.4 0 .72-.38.72-.85V5.57c0-.42-.36-.43-.72-.43h-.71c-.2 0-.36-.19-.36-.43v-.88c0-.38 0-.75-.26-.83H5c-.39 0-.71.38-.71.86z"/></svg>