<svg xmlns="http://www.w3.org/2000/svg" width="14" height="15" viewBox="0 0 14 15"><path fill="#9ca9b2" d="M7 0C3.14 0 0 3.18 0 7.09c0 3.9 3.14 7.08 7 7.08s7-3.18 7-7.08A7.05 7.05 0 0 0 7 0zM5.95 3.55c.08 0 .15.05.16.12l1.57 5.85c.01.05 0 .09-.04.14-.03.05-.08.06-.13.06h-.87c-.08 0-.15-.04-.16-.12l-.32-1.46H4.53L4.21 9.6c-.01.08-.08.12-.16.12h-.87c-.05 0-.1 0-.13-.04-.04-.05-.05-.1-.04-.15l1.55-5.85a.17.17 0 0 1 .17-.13zM4.73 7.19h1.23l-.61-2.61zm5.71-1.07c.57.35.57 1.06.57 1.53v1.92c0 .08-.09.15-.17.15h-.5a.17.17 0 0 1-.12-.04.16.16 0 0 1-.05-.11 2.5 2.5 0 0 1-.88.17c-.55 0-1-.24-1.25-.63a1.13 1.13 0 0 1-.01-1.19c.28-.49 1.16-.55 1.98-.55h.16c-.01-.26-.06-.41-.16-.51-.1-.09-.27-.14-.5-.14-.25 0-.75.22-.93.3-.02.02-.04.02-.07.02-.05 0-.08-.02-.12-.05l-.33-.32a.19.19 0 0 1-.05-.13c0-.04.03-.07.07-.11.45-.31 1.05-.5 1.58-.5.31 0 .58.06.78.19zm-.76 2.02h.49c0 .79-1.49 1.09-1.49.45 0-.32.31-.45 1-.45z"/></svg>