<?xml version="1.0" encoding="UTF-8" standalone="no"?>
<svg width="15px" height="15px" viewBox="0 0 15 15" version="1.1" xmlns="http://www.w3.org/2000/svg" xmlns:xlink="http://www.w3.org/1999/xlink">

    <g id="Main" stroke="none" stroke-width="1" fill="none" fill-rule="evenodd">
        <g id="Dashboard" transform="translate(-1112.000000, -139.000000)">
            <g id="search_full" transform="translate(1120.000000, 148.000000) scale(-1, 1) rotate(-320.000000) translate(-1120.000000, -148.000000) translate(1114.000000, 139.000000)">
                <path d="M5.64801156,0.404230455 C2.54450844,0.404996658 0.0286220634,2.92876596 0.0286220634,6.03043396 L0.0286220634,5.90013196 C0.0286220634,9.00663215 2.55244685,11.5810331 5.64801156,11.6498235 L5.78127497,11.6527849 C8.88477809,11.7217516 11.4006645,9.25321231 11.4006645,6.15688336 L11.4006645,6.02358705 C11.4006645,2.91931773 8.87683967,0.403433312 5.78127497,0.404197555 L5.64801156,0.404230455 Z" id="Path-2" stroke="#268ED6"></path>
                <path d="M4.31308854,11.4033919 L4.31308854,16.5255857 C4.31308854,16.9358263 4.64598716,17.268392 5.06308854,17.268392 L5.06308854,17.268392 C5.4773021,17.268392 5.81308854,16.9362598 5.81308854,16.5255857 L5.81308854,11.4033919 L4.31308854,11.4033919 Z" id="Path-10" fill="#268ED6" transform="translate(5.063089, 14.335892) scale(-1, 1) rotate(-5.000000) translate(-5.063089, -14.335892) "></path>
            </g>
        </g>
    </g>
</svg>