<svg xmlns="http://www.w3.org/2000/svg" width="12" height="14" viewBox="0 0 12 14">
    <g  stroke="none" stroke-width="1" fill="none" fill-rule="evenodd" >
        <path d="M8.47217057,0.516437054 C8.21139796,0.231216745 7.77806759,0.221932411 7.5,0.5 L7.5,0.5 C7.22385763,0.776142375 7.1960988,1.23531896 7.44193649,1.53032469 L8.5,2.80000305 L0.695590675,2.80000305 C0.311426553,2.80000305 0,3.10751011 0,3.49102829 L0,3.55897477 C0,3.94061746 0.322830677,4.25 0.695590675,4.25 L8.5,4.25 L7.45819998,5.46543336 C7.20514312,5.76066636 7.22193241,6.22193241 7.5,6.5 L7.5,6.5 C7.77614237,6.77614237 8.20996074,6.77035522 8.47217057,6.48356295 L10.8575412,3.87456131 C11.0466743,3.66769681 11.0456544,3.33118773 10.8575412,3.12543869 L8.47217057,0.516437054 Z" id="Shape" fill="#228FD9"></path>
        <path d="M8.47293403,6.51956463 C8.21213792,6.23434433 7.7787685,6.22505999 7.50067585,6.50312758 L7.50067585,6.50312758 C7.22450859,6.77926996 7.19674727,7.23844654 7.44260711,7.53345227 L8.50076596,8.80313063 L0.695653357,8.80313063 C0.311454617,8.80313063 0,9.11063769 0,9.49415587 L0,9.56210235 C0,9.94374505 0.322859768,10.2531276 0.695653357,10.2531276 L8.50076596,10.2531276 L7.45887206,11.4685609 C7.2057924,11.7637939 7.2225832,12.22506 7.50067585,12.5031276 L7.50067585,12.5031276 C7.77684311,12.77927 8.21070057,12.7734828 8.47293403,12.4866905 L10.8585196,9.87768889 C11.0476698,9.67082439 11.0466498,9.33431531 10.8585196,9.12856627 L8.47293403,6.51956463 Z" id="Shape" fill="#228FD9" transform="translate(5.500000, 9.503047) scale(-1, 1) translate(-5.500000, -9.503047) "></path>
    </g>
</svg>